<?xml version="1.0" encoding="UTF-8"?>
<svg version="1.1" xmlns="http://www.w3.org/2000/svg" width="512" height="512">
<path d="M0 0 C9.60721545 9.00326376 18.18552179 18.40952432 26 29 C26.83712299 30.10685902 27.67436192 31.21363037 28.51171875 32.3203125 C44.31597272 53.51230999 56.24616546 77.76848145 64 103 C64.45052734 104.46300537 64.45052734 104.46300537 64.91015625 105.95556641 C71.36983393 127.37183043 75.41643634 149.59622986 76 172 C76.03996094 173.31355469 76.07992188 174.62710938 76.12109375 175.98046875 C77.46726469 242.2850917 53.50424298 305.50799592 7.7421875 353.4453125 C1.22633346 360.1462596 -5.57407444 366.30845169 -13 372 C-13.53254395 372.41427246 -14.06508789 372.82854492 -14.61376953 373.25537109 C-37.24438309 390.78484836 -62.59447189 403.84032073 -89.6875 412.9375 C-90.3403598 413.15906769 -90.9932196 413.38063538 -91.66586304 413.60891724 C-95.68450707 414.96011845 -99.72330194 416.2036935 -103.8008728 417.36502075 C-105.27771571 417.79144656 -106.74984794 418.23450747 -108.21694946 418.69332886 C-125.98724109 424.16969024 -144.06067228 423.80394115 -162.46606445 423.70678711 C-166.02554654 423.688495 -169.5834371 423.69538573 -173.14282227 423.72729492 C-193.92612488 423.91336483 -212.98512272 423.29560188 -233 417 C-234.41567351 416.59364185 -235.83264834 416.1917741 -237.2512207 415.7956543 C-240.78354087 414.77668469 -244.26565986 413.67166224 -247.75 412.5 C-248.98532471 412.08476074 -250.22064941 411.66952148 -251.4934082 411.24169922 C-277.75106396 402.1913025 -302.5615363 388.67826213 -324 371 C-324.55993652 370.54157715 -325.11987305 370.0831543 -325.69677734 369.61083984 C-338.35072731 359.19222124 -349.96743821 347.99634065 -360 335 C-360.45197754 334.42975098 -360.90395508 333.85950195 -361.36962891 333.27197266 C-393.07349933 293.24782105 -410.56388588 241.93418062 -412 191 C-412.02191406 190.25492188 -412.04382813 189.50984375 -412.06640625 188.7421875 C-413.69085321 123.11453049 -391.00142856 57.87478384 -345.75 9.875 C-337.90920558 1.67780583 -330.0317243 -6.11304706 -321 -13 C-320.35675781 -13.49258301 -319.71351563 -13.98516602 -319.05078125 -14.49267578 C-308.87165255 -22.22345121 -298.46052496 -28.9820518 -287.12451172 -34.88867188 C-285.13399737 -35.92990623 -283.16222888 -37.00022671 -281.19140625 -38.078125 C-194.57723226 -84.47978765 -78.70979473 -69.40439585 0 0 Z " fill="#1877F2" transform="translate(424,77)"/>
<path d="M0 0 C0.90775177 -0.00200409 1.81550354 -0.00400818 2.75076294 -0.006073 C38.82383758 -0.02558121 38.82383758 -0.02558121 47.375 4.25 C47.375 24.05 47.375 43.85 47.375 64.25 C29.5 64.625 29.5 64.625 23.92236328 64.72802734 C10.1732595 65.02923986 -4.37335028 65.705446 -14.625 76.25 C-21.19935677 86.02269249 -23.07180842 95.29900569 -23.13671875 106.94140625 C-23.16167419 108.52012512 -23.16167419 108.52012512 -23.18713379 110.1307373 C-23.24452855 114.02445944 -23.27708452 117.91851592 -23.3125 121.8125 C-23.4671875 134.8990625 -23.4671875 134.8990625 -23.625 148.25 C-1.185 148.25 21.255 148.25 44.375 148.25 C43.25978302 161.63260375 43.25978302 161.63260375 42.0078125 167.734375 C40.79281687 173.8711771 39.74533841 180.01833421 38.8046875 186.203125 C38.67636536 187.04629272 38.54804321 187.88946045 38.41583252 188.75817871 C38.02518414 191.33848337 37.63724381 193.91918236 37.25 196.5 C36.85380695 199.13340495 36.45676262 201.7666704 36.05740356 204.39959717 C35.81173258 206.01979106 35.56787988 207.64026207 35.32614136 209.26104736 C34.81278673 212.65127713 34.20770805 215.9191678 33.375 219.25 C14.565 219.25 -4.245 219.25 -23.625 219.25 C-23.625 275.68 -23.625 332.11 -23.625 390.25 C-48.705 390.25 -73.785 390.25 -99.625 390.25 C-99.625 333.82 -99.625 277.39 -99.625 219.25 C-120.085 219.25 -140.545 219.25 -161.625 219.25 C-161.625 196.15 -161.625 173.05 -161.625 149.25 C-141.165 149.25 -120.705 149.25 -99.625 149.25 C-99.65980469 144.4546875 -99.69460937 139.659375 -99.73046875 134.71875 C-99.74583071 131.64712294 -99.76027481 128.57554448 -99.77148438 125.50390625 C-99.78928996 120.64817237 -99.8101535 115.79261111 -99.85131836 110.93701172 C-99.88436016 107.01418695 -99.90194537 103.09154775 -99.90963173 99.16859436 C-99.91509613 97.68576645 -99.92576135 96.20294655 -99.94219017 94.72019958 C-100.208606 69.63516041 -94.11971193 44.00858846 -76.625 25.25 C-55.45760589 3.84828049 -28.66716633 0.03062421 0 0 Z " fill="#F0F0F1" transform="translate(317.625,108.75)"/>
</svg>
